<mxfile host="app.diagrams.net" modified="2022-07-29T09:58:09.103Z" agent="5.0 (Windows NT 10.0; Win64; x64) AppleWebKit/537.36 (KHTML, like Gecko) Chrome/103.0.0.0 Safari/537.36" etag="F7dvtrMCSgi1OE849kMn" version="20.2.2" type="github">
  <diagram id="YufPVpXXCuH1O6eoGJ1I" name="페이지-1">
    <mxGraphModel dx="1778" dy="953" grid="0" gridSize="10" guides="1" tooltips="1" connect="1" arrows="1" fold="1" page="1" pageScale="1" pageWidth="1169" pageHeight="827" math="0" shadow="0">
      <root>
        <mxCell id="0" />
        <mxCell id="1" parent="0" />
        <mxCell id="cF9QNokk2vd6e9R_vgRt-2" value="MongoDB" style="rounded=1;whiteSpace=wrap;html=1;fontSize=15;fontStyle=1" vertex="1" parent="1">
          <mxGeometry x="974" y="309" width="98" height="38" as="geometry" />
        </mxCell>
        <mxCell id="cF9QNokk2vd6e9R_vgRt-3" value="Postgresql" style="rounded=1;whiteSpace=wrap;html=1;fontSize=15;fontStyle=1" vertex="1" parent="1">
          <mxGeometry x="974" y="429" width="98" height="38" as="geometry" />
        </mxCell>
        <mxCell id="cF9QNokk2vd6e9R_vgRt-6" value="" style="rounded=0;orthogonalLoop=1;jettySize=auto;html=1;fontSize=15;" edge="1" parent="1" source="cF9QNokk2vd6e9R_vgRt-4" target="cF9QNokk2vd6e9R_vgRt-5">
          <mxGeometry relative="1" as="geometry" />
        </mxCell>
        <mxCell id="cF9QNokk2vd6e9R_vgRt-7" style="rounded=0;orthogonalLoop=1;jettySize=auto;html=1;fontSize=15;" edge="1" parent="1" source="cF9QNokk2vd6e9R_vgRt-4" target="cF9QNokk2vd6e9R_vgRt-2">
          <mxGeometry relative="1" as="geometry" />
        </mxCell>
        <mxCell id="cF9QNokk2vd6e9R_vgRt-8" style="rounded=0;orthogonalLoop=1;jettySize=auto;html=1;fontSize=15;" edge="1" parent="1" source="cF9QNokk2vd6e9R_vgRt-4" target="cF9QNokk2vd6e9R_vgRt-3">
          <mxGeometry relative="1" as="geometry" />
        </mxCell>
        <mxCell id="cF9QNokk2vd6e9R_vgRt-13" value="" style="edgeStyle=none;rounded=0;orthogonalLoop=1;jettySize=auto;html=1;fontSize=15;" edge="1" parent="1" source="cF9QNokk2vd6e9R_vgRt-4" target="cF9QNokk2vd6e9R_vgRt-12">
          <mxGeometry relative="1" as="geometry" />
        </mxCell>
        <mxCell id="cF9QNokk2vd6e9R_vgRt-4" value="GraphQL" style="rounded=1;whiteSpace=wrap;html=1;fontSize=15;fontStyle=1" vertex="1" parent="1">
          <mxGeometry x="698" y="368" width="98" height="38" as="geometry" />
        </mxCell>
        <mxCell id="cF9QNokk2vd6e9R_vgRt-5" value="gqlgen" style="rounded=1;whiteSpace=wrap;html=1;fontSize=15;fontStyle=1" vertex="1" parent="1">
          <mxGeometry x="698" y="486" width="98" height="38" as="geometry" />
        </mxCell>
        <mxCell id="cF9QNokk2vd6e9R_vgRt-11" value="" style="rounded=0;orthogonalLoop=1;jettySize=auto;html=1;fontSize=15;" edge="1" parent="1" source="cF9QNokk2vd6e9R_vgRt-9" target="cF9QNokk2vd6e9R_vgRt-10">
          <mxGeometry relative="1" as="geometry" />
        </mxCell>
        <mxCell id="cF9QNokk2vd6e9R_vgRt-9" value="React" style="rounded=1;whiteSpace=wrap;html=1;fontSize=15;fontStyle=1" vertex="1" parent="1">
          <mxGeometry x="226" y="368" width="98" height="38" as="geometry" />
        </mxCell>
        <mxCell id="cF9QNokk2vd6e9R_vgRt-10" value="TypeScript" style="rounded=1;whiteSpace=wrap;html=1;fontSize=15;fontStyle=1" vertex="1" parent="1">
          <mxGeometry x="226" y="486" width="98" height="38" as="geometry" />
        </mxCell>
        <mxCell id="cF9QNokk2vd6e9R_vgRt-12" value="NginX" style="rounded=1;whiteSpace=wrap;html=1;fontSize=15;fontStyle=1" vertex="1" parent="1">
          <mxGeometry x="520" y="368" width="98" height="38" as="geometry" />
        </mxCell>
      </root>
    </mxGraphModel>
  </diagram>
</mxfile>
